<svg id="visual" viewBox="0 0 960 540" width="960" height="540" xmlns="http://www.w3.org/2000/svg" xmlns:xlink="http://www.w3.org/1999/xlink" version="1.1"><rect x="0" y="0" width="960" height="540" fill="#FFFFFF"></rect><defs><linearGradient id="grad1_0" x1="43.8%" y1="100%" x2="100%" y2="0%"><stop offset="14.444444444444446%" stop-color="#f1f3f5" stop-opacity="1"></stop><stop offset="85.55555555555554%" stop-color="#f1f3f5" stop-opacity="1"></stop></linearGradient></defs><defs><linearGradient id="grad1_1" x1="43.8%" y1="100%" x2="100%" y2="0%"><stop offset="14.444444444444446%" stop-color="#f1f3f5" stop-opacity="1"></stop><stop offset="85.55555555555554%" stop-color="#ffffff" stop-opacity="1"></stop></linearGradient></defs><defs><linearGradient id="grad2_0" x1="0%" y1="100%" x2="56.3%" y2="0%"><stop offset="14.444444444444446%" stop-color="#f1f3f5" stop-opacity="1"></stop><stop offset="85.55555555555554%" stop-color="#f1f3f5" stop-opacity="1"></stop></linearGradient></defs><defs><linearGradient id="grad2_1" x1="0%" y1="100%" x2="56.3%" y2="0%"><stop offset="14.444444444444446%" stop-color="#ffffff" stop-opacity="1"></stop><stop offset="85.55555555555554%" stop-color="#f1f3f5" stop-opacity="1"></stop></linearGradient></defs><g transform="translate(960, 540)"><path d="M-396 0C-391.6 -52.8 -387.1 -105.5 -368.6 -152.7C-350.1 -199.8 -317.6 -241.4 -280.7 -280.7C-243.8 -320.1 -202.5 -357.3 -155 -374.2C-107.5 -391 -53.7 -387.5 0 -384L0 0Z" fill="#f8f9fa"></path><path d="M-198 0C-195.8 -26.4 -193.6 -52.8 -184.3 -76.3C-175.1 -99.9 -158.8 -120.7 -140.4 -140.4C-121.9 -160 -101.3 -178.7 -77.5 -187.1C-53.7 -195.5 -26.9 -193.8 0 -192L0 0Z" fill="#f1f3f5"></path></g><g transform="translate(0, 0)"><path d="M405 0C396.5 52.2 387.9 104.4 368.6 152.7C349.3 201 319.2 245.5 281.4 281.4C243.6 317.3 198.2 344.7 150 362.2C101.8 379.7 50.9 387.3 0 395L0 0Z" fill="#f8f9fa"></path><path d="M202.5 0C198.2 26.1 194 52.2 184.3 76.3C174.7 100.5 159.6 122.8 140.7 140.7C121.8 158.7 99.1 172.3 75 181.1C50.9 189.8 25.5 193.7 0 197.5L0 0Z" fill="#f1f3f5"></path></g></svg>